<svg width="468" height="548" viewBox="0 0 468 548" fill="none" xmlns="http://www.w3.org/2000/svg">
<path d="M684.758 24.4479C684.758 24.4479 542.303 53.519 375.375 160.753C208.447 267.987 166.645 351.607 166.645 351.607M537.427 66.0656C537.427 66.0656 519.267 51.1703 504.71 45.0723C490.153 38.9742 460.592 28.9048 453.206 25.3918C445.831 21.8814 418.357 -4.05108 415.506 2.34375C412.655 8.73858 427.394 29.0171 438.088 33.3117C448.781 37.6064 456.222 38.9266 469.964 45.2704C483.705 51.6141 505.256 67.3373 509.221 68.2478C515.699 69.7392 518.783 63.0007 511.966 60.4994C505.149 57.998 491.933 62.2885 483.814 62.4155C475.694 62.5425 388.293 52.4746 377.34 49.4473C366.387 46.42 339.705 52.4838 374.406 63.7815C409.108 75.0793 462.21 70.6361 491.816 76.0658C521.419 81.5081 521.419 81.5081 521.419 81.5081M549.952 69.1189C549.811 69.524 491.22 109.063 460.31 150.799C429.4 192.536 467.822 157.438 474.519 151.062C481.227 144.688 500.733 128.531 518.497 113.291C528.679 104.563 538.867 98.2947 546.443 93.8005M546.443 93.8005C549.531 83.1302 549.141 77.0456 555.342 76.4917C562.546 75.8558 561.834 82.4506 557.945 86.3812C556.28 88.0603 552.081 90.4429 546.443 93.8005ZM546.443 93.8005C544.196 101.547 541.882 110.873 539.477 119.565C537.288 127.485 535.023 134.869 532.683 140.069C524.216 158.835 481.765 208.008 473.68 221.112C465.603 234.23 431.754 282.793 436.583 287.468C441.412 292.144 452.705 272.717 457.124 266.254C460.855 260.772 521.504 177.806 548.274 132.048M548.274 132.048C553.165 123.677 556.927 116.568 558.997 111.383C567.542 90.0312 571.241 70.9352 572.803 59.9041M548.274 132.048C546.014 138.901 542.381 148.38 536.534 160.856C522.16 191.487 479.091 249.35 475.308 254.634C471.522 259.931 454.741 294.843 483.356 260.523C511.974 226.19 536.289 184.662 542.462 173.312C548.648 161.952 556.722 148.846 563.716 122.211C570.706 95.589 566.806 91.1328 566.806 91.1328M543.599 104.13C543.599 104.13 469.108 179.373 458.767 201.682C448.418 223.977 439.671 242.238 468.01 207.401C496.348 172.564 514.377 148.551 520.256 142.433C526.135 136.315 539.486 119.58 539.486 119.58M497.574 77.108C481.944 85.093 443.015 104.764 426.803 111.057C406.271 119.027 376.942 132.357 361.748 134.984C346.553 137.611 312.054 142.266 350.835 128.02C389.608 113.759 425.726 99.3229 438.404 93.922C442.862 92.026 447.749 88.7165 452.424 85.53M452.424 85.53C461.022 79.6696 468.847 74.238 471.821 78.8604C473.396 81.3055 464.87 83.5289 452.424 85.53ZM452.424 85.53C428.633 89.3672 390.504 92.3799 381.203 94.5397C367.034 97.821 322.585 105.877 307.205 107.543C291.824 109.21 269.683 111.895 269.683 111.895C269.683 111.895 230.78 109.796 269.516 99.5123C308.262 89.2314 410.226 77.0974 410.226 77.0974L431.698 71.9549L431.712 71.9448M423.448 197.028C414.626 217.412 399.082 254.383 384.147 294.952C361.566 356.329 367.288 345.311 353.33 379.574C339.386 413.828 342.779 385.916 345.784 376.9C348.786 367.897 356.036 340.007 362.032 321.986C365.273 312.268 375.65 285.702 386.606 257.891M423.448 197.028C423.956 195.169 424.499 193.198 425.072 191.074C436.188 149.961 440.243 130.152 440.243 130.152C440.243 130.152 423.482 138.56 393.612 182.748C363.751 226.952 356.467 245.546 352.282 254.721C348.085 263.894 338.572 300.975 360.073 261.864C381.573 222.767 399.951 196.085 408.597 185.852C411.413 182.518 415.253 177.978 418.963 173.221M423.448 197.028C414.021 231.247 414.164 224.092 398.458 274.033C381.897 326.681 404.003 284.618 407.65 276.205C411.307 267.795 426.874 223.748 435.31 188.193C442.2 159.115 448.102 127.385 450.02 116.771M386.606 257.891C386.609 257.879 386.611 257.866 386.611 257.866M386.606 257.891C380.119 265.792 370.602 278.411 362.695 292.911C349.277 317.51 340.139 344.196 319.242 380.353C298.345 416.511 308.844 384.074 312.126 375.576C315.407 367.077 347.481 295.122 368.549 264.306C380.763 246.439 391.48 234.755 398.339 228.098M386.606 257.891C386.606 257.891 386.622 257.868 386.611 257.866M386.611 257.866C390.549 247.861 394.567 237.69 398.339 228.098M398.339 228.098L398.342 228.085C403.558 214.835 408.331 202.676 411.862 193.466C414.868 185.633 417.15 178.904 418.963 173.221M418.963 173.221C425.071 153.91 425.61 146.69 429.831 149.747C433.71 152.551 426.629 163.354 418.963 173.221ZM387.937 152.8C378.674 153.64 362.272 155.198 345.301 157.153L345.29 157.15M345.29 157.15C331.243 158.759 316.827 160.64 305.765 162.623C305.765 162.623 305.765 162.623 305.754 162.62M345.29 157.15C329.798 152.957 296.207 144.964 254.382 141.443C196.381 136.57 165.334 160.164 160.508 163.009C155.684 165.842 145.634 175.399 164.165 169.614C182.707 163.832 194.827 155.495 235.323 155.42C264.624 155.37 292.541 160.042 305.754 162.62M305.754 162.62C302.564 163.195 299.66 163.784 297.117 164.366C269.609 170.673 181.453 201.975 166.594 208.627C151.735 215.28 117.626 242.561 171.084 222.497C224.552 202.436 252.272 193.229 261.623 188.955C263.808 187.97 269.406 186.622 276.672 185.058M276.672 185.058C288.114 182.58 303.67 179.547 316.372 176.464M276.672 185.058C253.541 199.72 208.117 228.181 178.068 244.916C136.282 268.177 153.858 272.783 186.016 256.959C209.855 245.24 279.903 197.487 316.372 176.464M316.372 176.464C330.207 173.117 340.68 169.706 338.896 166.866C337.739 165.038 329.1 169.122 316.372 176.464ZM341.615 183.267C339.859 194.85 336.24 215.932 331.088 232.04C323.593 255.461 296.33 352.868 284.194 382.022C272.059 411.175 265.205 420.185 275.368 379.935C285.53 339.686 305.681 280.831 310.314 263.802C314.955 246.789 322.05 225.041 322.05 225.041C322.05 225.041 246.409 348.111 242.193 355.512C237.976 362.913 202.824 402.318 237.502 343.362C272.171 284.39 292.55 250.768 308.261 224.878C315.242 213.374 321.111 202.829 325.486 194.655M233.161 270.971C229.748 298.014 220.192 370.375 211.2 405.188C200.03 448.494 185.128 494.904 183.363 499.789C181.587 504.671 160.863 539.979 175.956 494.504C191.049 449.029 202.844 419.556 211.662 369.954C217.474 337.193 221.526 301.133 223.611 280.407M215.009 289.296C206.715 286.365 185.35 280.213 156.17 282.165C118.258 284.684 67.5693 293.033 39.0401 298.66C10.5108 304.287 6.91278 316.259 45.4116 309.002C83.9078 301.758 124.476 297.647 142.232 295.652C159.985 293.67 180.348 294.058 189.52 294.459C195.428 294.712 202.8 296.428 207.3 297.612C203.369 314.952 165.585 450.956 148.351 486.212C131.106 521.466 135.85 498.285 138.49 489.183C141.116 480.091 152.391 443.865 166.296 406.068C180.203 368.258 191.202 325.788 191.786 321.064C192.076 318.74 191.671 317.887 189.796 318.095C187.88 318.28 184.426 319.576 178.587 321.478C173.766 323.049 165.959 325.668 156.7 328.928M156.7 328.928C143.843 333.449 128.206 339.2 113.988 345.101C89.5466 355.229 58.8219 367.844 23.402 393.939C-12.0179 420.033 1.83206 399.443 17.7915 385.544C33.751 371.644 52.0197 359.606 85.1701 344.601C118.32 329.596 162.365 314.11 177.349 310.583C184.842 308.819 192.733 307.827 198.785 307.265M156.7 328.928C146.79 338.823 130.3 354.803 117.722 364.532C98.4754 379.422 68.6548 398.894 48.4389 416.651C28.234 434.41 8.80471 463.394 6.26761 466.329C3.74157 469.266 -7.00692 495.439 14.1447 473.054C35.31 450.658 33.3883 450.643 57.0226 427.516C73.2215 411.653 110.959 382.279 141.528 360.114M176.294 336.136C168.065 341.273 155.556 349.93 141.528 360.114M141.528 360.114C131.308 371.862 118.582 388.147 107.924 406.741C86.1839 444.692 65.3864 486.48 48.3524 526.368C31.3184 566.255 55.5733 536.299 59.391 528.977C63.1977 521.652 76.2513 489.939 100.573 442.659C114.121 416.35 135.12 393.916 149.397 378.264M149.397 378.264C152.749 364.719 155.622 350.849 163.577 355.267C167.878 357.652 160.76 365.802 149.397 378.264ZM149.397 378.264C148.661 381.239 147.905 384.196 147.066 386.934C142.402 402.188 134.114 427.613 124.749 447.934C115.383 468.256 103.8 487.176 87.324 516.858C70.8369 546.537 87.6775 530.202 92.8178 523.896C97.9665 517.606 109.533 504.435 132.429 452.846C155.325 401.256 171.424 352.737 171.424 352.737" stroke="#233000" stroke-miterlimit="10"/>
</svg>
