<svg width="194" height="28" viewBox="0 0 194 28" fill="none" xmlns="http://www.w3.org/2000/svg">
<g clip-path="url(#clip0_15666_99)">
<path d="M8.23327 0C3.71382 0 0 3.70873 0 8.23327V19.7667C0 24.2862 3.70873 28 8.23327 28H19.7667C24.2862 28 28 24.2913 28 19.7667V8.23455C28 3.71382 24.2913 0 19.7667 0H8.23327ZM8.23327 2.54545H19.7667C20.5139 2.54445 21.254 2.69088 21.9445 2.97637C22.6351 3.26185 23.2625 3.68077 23.7909 4.20914C24.3192 4.7375 24.7381 5.36492 25.0236 6.05545C25.3091 6.74598 25.4555 7.48606 25.4545 8.23327V19.7667C25.4555 20.5139 25.3091 21.254 25.0236 21.9445C24.7381 22.6351 24.3192 23.2625 23.7909 23.7909C23.2625 24.3192 22.6351 24.7381 21.9445 25.0236C21.254 25.3091 20.5139 25.4555 19.7667 25.4545H8.23455C7.48722 25.4557 6.74701 25.3094 6.05633 25.024C5.36565 24.7386 4.73808 24.3197 4.20959 23.7913C3.68109 23.2629 3.26205 22.6355 2.97649 21.9448C2.69092 21.2542 2.54445 20.5141 2.54545 19.7667C2.54545 19.7667 2.54663 8.98187 2.54545 8.23455C2.54428 7.48722 2.69059 6.74701 2.976 6.05633C3.26141 5.36565 3.6803 4.73808 4.20868 4.20959C4.73706 3.68109 5.36454 3.26205 6.05515 2.97649C6.74577 2.69092 7.48595 2.54445 8.23327 2.54545ZM21.5167 5.33018C21.3651 5.32951 21.2149 5.35887 21.0747 5.41658C20.9345 5.47429 20.8071 5.5592 20.6999 5.66641C20.5927 5.77362 20.5077 5.901 20.45 6.04121C20.3923 6.18141 20.363 6.33166 20.3636 6.48327C20.3636 7.12473 20.8753 7.63636 21.5167 7.63636C21.6684 7.63721 21.8188 7.60796 21.9592 7.55033C22.0995 7.4927 22.2271 7.40781 22.3344 7.30059C22.4418 7.19336 22.5268 7.06592 22.5846 6.92563C22.6424 6.78535 22.6718 6.63499 22.6711 6.48327C22.6718 6.33155 22.6424 6.1812 22.5846 6.04091C22.5268 5.90062 22.4418 5.77318 22.3344 5.66596C22.2271 5.55873 22.0995 5.47385 21.9592 5.41621C21.8188 5.35858 21.6684 5.32934 21.5167 5.33018ZM14 6.36364C9.8 6.36364 6.36364 9.8 6.36364 14C6.36364 18.2 9.8 21.6364 14 21.6364C18.2 21.6364 21.6364 18.2 21.6364 14C21.6364 9.8 18.2 6.36364 14 6.36364ZM14 8.90909C16.8293 8.90909 19.0909 11.1707 19.0909 14C19.0909 16.8293 16.8293 19.0909 14 19.0909C11.1707 19.0909 8.90909 16.8293 8.90909 14C8.90909 11.1707 11.1707 8.90909 14 8.90909Z" fill="white"/>
</g>
<g clip-path="url(#clip1_15666_99)">
<path d="M84 2.60975C82.9516 3.05836 81.8394 3.3522 80.7007 3.48144C81.8995 2.78756 82.7967 1.69633 83.2253 0.410799C82.0978 1.05666 80.865 1.51271 79.5795 1.75949C78.792 0.94571 77.7693 0.379785 76.6446 0.135299C75.5198 -0.109186 74.345 -0.0209199 73.2728 0.38862C72.2007 0.798161 71.2808 1.51003 70.6328 2.43166C69.9848 3.35329 69.6387 4.44204 69.6395 5.55635C69.6395 5.99275 69.6897 6.41563 69.7912 6.82046C67.5063 6.71176 65.2707 6.13891 63.2302 5.13924C61.1896 4.13958 59.3899 2.73553 57.9483 1.01861C57.4361 1.86606 57.1675 2.83039 57.1702 3.81184C57.1702 5.73677 58.1817 7.4373 59.7263 8.43303C58.814 8.40504 57.9218 8.16607 57.1247 7.73613V7.80717C57.1239 9.08953 57.5825 10.3326 58.4226 11.3251C59.2627 12.3176 60.4324 12.9983 61.733 13.2516C60.8872 13.4757 59.9995 13.5089 59.1383 13.3485C59.5051 14.4517 60.2193 15.4166 61.181 16.1085C62.1428 16.8003 63.304 17.1845 64.5027 17.2074C63.3111 18.1114 61.9468 18.7794 60.4878 19.1732C59.0288 19.567 57.5037 19.6788 56 19.5022C58.6256 21.1354 61.6825 22.0026 64.8048 22C75.3725 22 81.1522 13.538 81.1522 6.19912C81.1522 5.96231 81.1428 5.71873 81.1335 5.48079C82.2565 4.69487 83.2269 3.72329 84 2.61088V2.60975Z" fill="white"/>
</g>
<g clip-path="url(#clip2_15666_99)">
<path d="M114.364 0C113.071 0 112 1.07073 112 2.36364V23.6364C112 24.9293 113.071 26 114.364 26H135.636C136.929 26 138 24.9293 138 23.6364V2.36364C138 1.07073 136.929 0 135.636 0H114.364ZM114.364 2.36364H135.636V23.6364H129.505V15.6591H132.571L133.014 12.1136H129.506V9.82327C129.506 8.79036 129.759 8.08836 131.241 8.08836H133.162V4.875C132.834 4.83364 131.699 4.76391 130.393 4.76391C127.669 4.76391 125.813 6.40309 125.813 9.45455V12.1136H122.711V15.6591H125.812V23.6364H114.364V2.36364Z" fill="white"/>
</g>
<g clip-path="url(#clip3_15666_99)">
<path d="M180 0C175.944 0 172.36 0.429 170.173 0.7568C168.364 1.0274 166.905 2.4189 166.572 4.2625C166.291 5.8311 166 8.1257 166 11C166 13.8743 166.291 16.17 166.572 17.7375C166.905 19.5811 168.364 20.977 170.173 21.2443C172.37 21.5699 175.966 22 180 22C184.034 22 187.631 21.571 189.827 21.2432C191.636 20.977 193.095 19.5811 193.428 17.7375C193.709 16.1645 194 13.8655 194 11C194 8.1345 193.714 5.8355 193.428 4.2625C193.095 2.4189 191.636 1.0274 189.827 0.7557C187.64 0.4301 184.055 0 180 0ZM180 2.2C183.912 2.2 187.408 2.6081 189.524 2.9216C189.964 2.98581 190.373 3.18968 190.693 3.50436C191.013 3.81904 191.228 4.22858 191.308 4.675C191.568 6.127 191.846 8.2797 191.846 11C191.846 13.7159 191.568 15.873 191.308 17.325C191.229 17.772 191.015 18.1824 190.695 18.4973C190.374 18.8122 189.965 19.0156 189.524 19.0784C187.398 19.3919 183.887 19.8 180 19.8C176.112 19.8 172.596 19.3919 170.476 19.0784C170.036 19.0148 169.626 18.8112 169.306 18.4964C168.986 18.1816 168.771 17.7717 168.692 17.325C168.432 15.873 168.154 13.7247 168.154 11C168.154 8.272 168.432 6.127 168.692 4.675C168.771 4.2283 168.986 3.81841 169.306 3.50362C169.626 3.18883 170.036 2.98517 170.476 2.9216C172.588 2.6081 176.088 2.2 180 2.2ZM176.769 4.7091V17.292L178.385 16.3636L185.923 11.9636L187.538 11L185.923 10.0375L178.385 5.6375L176.769 4.7091ZM178.923 8.4909L183.197 11L178.923 13.5091V8.4909Z" fill="white"/>
</g>
<defs>
<clipPath id="clip0_15666_99">
<rect width="28" height="28" fill="white"/>
</clipPath>
<clipPath id="clip1_15666_99">
<rect width="28" height="22" fill="white" transform="translate(56)"/>
</clipPath>
<clipPath id="clip2_15666_99">
<rect width="26" height="26" fill="white" transform="translate(112)"/>
</clipPath>
<clipPath id="clip3_15666_99">
<rect width="28" height="22" fill="white" transform="translate(166)"/>
</clipPath>
</defs>
</svg>
